<?xml version="1.0" standalone="no"?>
<!DOCTYPE svg PUBLIC "-//W3C//DTD SVG 20010904//EN"
 "http://www.w3.org/TR/2001/REC-SVG-20010904/DTD/svg10.dtd">
<svg version="1.0" xmlns="http://www.w3.org/2000/svg"
 width="1231.000000pt" height="251.000000pt" viewBox="0 0 1231.000000 251.000000"
 preserveAspectRatio="xMidYMid meet">
<metadata>
Created by potrace 1.16, written by Peter Selinger 2001-2019
</metadata>
<g transform="translate(0.000000,251.000000) scale(0.100000,-0.100000)"
fill="#000000" stroke="none">
<path d="M1 1758 c1 -496 5 -724 10 -669 24 223 159 479 329 620 174 145 361
211 598 211 201 0 351 -40 517 -136 159 -93 312 -283 377 -468 44 -127 61
-116 -184 -116 l-213 1 -34 58 c-59 104 -174 196 -289 231 -85 26 -241 28
-322 4 -279 -82 -436 -407 -335 -693 39 -110 141 -228 244 -280 112 -58 303
-72 431 -32 114 36 245 153 289 260 l13 31 214 0 c248 0 230 11 186 -116 -56
-159 -166 -311 -309 -425 -81 -64 -150 -100 -273 -140 -138 -44 -197 -52 -343
-46 -138 5 -196 18 -332 72 -297 118 -530 435 -565 770 -4 40 -8 -137 -9 -412
l-1 -483 6155 0 6155 0 0 1255 0 1255 -6155 0 -6155 0 1 -752z m7537 400 l2
-248 218 -2 217 -3 0 -210 0 -210 -217 -3 -218 -2 0 -354 c0 -325 2 -359 20
-418 47 -152 166 -239 346 -255 l74 -6 0 -210 0 -210 -92 6 c-235 15 -452 119
-591 285 -56 66 -129 210 -151 297 -28 109 -36 236 -36 552 l0 312 -112 3
-113 3 0 210 0 210 113 3 112 3 0 243 c0 133 3 246 7 250 4 3 99 5 212 4 l206
-3 3 -247z m-4528 -427 l0 -208 -68 -6 c-126 -10 -230 -68 -299 -165 -68 -95
-67 -86 -71 -714 l-3 -568 -210 0 -210 0 4 593 c3 569 4 595 25 674 43 162
114 286 226 390 136 127 344 210 534 212 l72 1 0 -209z m1294 175 c384 -116
627 -426 662 -844 4 -44 3 -105 0 -136 l-7 -56 -731 0 -730 0 6 -37 c11 -62
70 -174 118 -228 91 -99 232 -155 392 -155 168 1 296 50 397 153 l56 57 226 0
226 0 -13 -38 c-78 -221 -242 -401 -458 -502 -150 -70 -227 -85 -433 -84 -206
0 -278 14 -422 83 -204 98 -336 230 -434 435 -62 129 -81 217 -86 396 -4 129
-2 171 15 252 37 177 113 324 235 454 124 131 275 219 443 258 38 8 78 18 89
20 11 3 97 3 190 2 151 -3 180 -6 259 -30z m1931 4 c249 -79 404 -251 430
-477 l7 -63 -170 0 -169 0 -5 45 c-10 88 -90 170 -197 202 -73 23 -217 22
-293 0 -66 -20 -134 -68 -161 -115 -24 -40 -25 -117 -4 -159 39 -75 150 -132
347 -178 304 -71 391 -101 497 -167 116 -73 181 -165 208 -294 40 -190 -10
-380 -132 -503 -64 -64 -186 -130 -287 -156 -225 -57 -516 -35 -709 54 -130
59 -244 172 -296 294 -22 52 -51 180 -51 227 l0 30 165 0 c124 0 166 -3 169
-12 2 -7 9 -35 15 -63 23 -99 112 -183 240 -227 86 -30 275 -33 361 -6 127 39
200 119 200 219 -1 143 -106 210 -442 279 -250 52 -396 113 -500 208 -186 172
-183 487 6 689 89 96 197 155 343 187 103 23 335 16 428 -14z m3733 14 c337
-69 604 -309 712 -637 11 -33 20 -66 20 -74 0 -10 -43 -13 -217 -13 l-218 0
-30 58 c-59 113 -187 212 -320 247 -76 19 -214 19 -290 0 -146 -39 -265 -137
-334 -277 -203 -411 150 -860 601 -767 139 29 281 134 344 253 l29 56 218 0
c173 0 217 -3 217 -13 0 -25 -47 -152 -82 -222 -127 -251 -371 -430 -669 -491
-103 -21 -321 -15 -419 12 -382 102 -654 406 -711 794 -14 98 -7 265 16 358
89 367 372 644 735 717 94 19 304 18 398 -1z m1728 -15 c263 -36 461 -198 519
-424 8 -32 15 -74 15 -92 l0 -33 -165 0 -165 0 0 25 c0 39 -27 96 -63 133
-119 125 -401 135 -531 21 -55 -49 -70 -84 -64 -156 5 -53 8 -60 56 -104 63
-57 156 -93 362 -139 310 -69 458 -140 552 -265 103 -136 116 -376 31 -547
-65 -128 -203 -231 -367 -273 -222 -56 -508 -34 -699 54 -192 87 -316 264
-334 474 l-6 67 167 0 166 0 0 -32 c1 -75 81 -187 164 -230 193 -99 471 -78
582 44 41 46 54 76 54 128 0 52 -15 88 -53 128 -61 64 -149 98 -366 143 -352
73 -525 169 -603 335 -26 56 -32 82 -36 164 -8 168 36 289 148 400 150 150
380 215 636 179z m-3096 -919 l0 -920 -210 0 -210 0 0 913 c0 503 3 917 7 920
3 4 98 7 210 7 l203 0 0 -920z"/>
<path d="M3863 1506 c-135 -33 -248 -121 -309 -241 -21 -40 -36 -76 -33 -79 3
-4 229 -5 502 -4 l497 3 -28 60 c-58 121 -181 223 -311 257 -78 20 -242 22
-318 4z"/>
</g>
</svg>
