<?xml version="1.0" standalone="no"?>
<!DOCTYPE svg PUBLIC "-//W3C//DTD SVG 20010904//EN"
 "http://www.w3.org/TR/2001/REC-SVG-20010904/DTD/svg10.dtd">
<svg version="1.0" xmlns="http://www.w3.org/2000/svg"
 width="1231.000000pt" height="250.000000pt" viewBox="0 0 1231.000000 250.000000"
 preserveAspectRatio="xMidYMid meet">
<metadata>
Created by potrace 1.16, written by Peter Selinger 2001-2019
</metadata>
<g transform="translate(0.000000,250.000000) scale(0.100000,-0.100000)"
fill="#000000" stroke="none">
<path d="M1 1753 c1 -412 5 -716 9 -678 11 97 34 180 80 285 53 125 115 213
212 306 124 119 259 192 426 231 101 23 325 23 429 0 283 -64 507 -238 635
-492 26 -51 68 -175 68 -201 0 -12 -37 -14 -212 -14 l-213 0 -29 55 c-37 72
-150 176 -230 214 -194 92 -431 56 -591 -90 -75 -69 -141 -201 -156 -311 -36
-271 129 -523 382 -583 83 -19 202 -19 289 1 121 27 249 131 307 248 l27 56
213 0 c246 0 228 11 185 -115 -55 -164 -157 -309 -289 -416 -97 -77 -153 -107
-288 -153 -238 -81 -433 -74 -680 24 -116 46 -194 101 -301 213 -81 84 -109
121 -151 202 -60 117 -100 240 -112 345 -6 50 -9 -82 -10 -402 l-1 -478 2983
1 c1640 1 2947 5 2904 10 -280 29 -499 168 -586 372 -22 52 -51 180 -51 227
l0 30 165 0 c124 0 166 -3 169 -13 2 -6 9 -34 15 -62 23 -99 112 -183 240
-227 86 -30 275 -33 361 -6 127 39 200 119 200 219 -1 143 -106 210 -442 279
-250 52 -396 113 -500 208 -146 136 -179 365 -81 569 41 86 158 199 253 245
125 61 184 73 365 73 140 0 169 -3 235 -23 253 -79 409 -251 435 -479 l7 -63
-170 0 -169 0 -5 45 c-10 88 -90 170 -197 202 -73 23 -217 22 -293 0 -66 -20
-134 -68 -161 -115 -24 -40 -25 -117 -4 -159 39 -75 150 -132 347 -178 380
-89 499 -140 604 -256 97 -108 134 -261 106 -439 -39 -246 -247 -412 -561
-449 -43 -5 1233 -9 3034 -10 l3107 -1 0 1250 0 1250 -1942 -1 c-1069 -1
-1928 -5 -1909 -9 95 -23 171 -124 171 -229 -1 -136 -97 -231 -234 -231 -102
0 -169 39 -211 123 -69 138 4 302 150 338 17 4 -1852 7 -4152 8 l-4183 1 1
-747z m7539 397 l0 -250 220 0 220 0 0 -210 0 -210 -220 0 -220 0 0 -360 c0
-339 1 -364 21 -422 50 -148 154 -226 334 -250 l85 -11 0 -210 0 -210 -82 7
c-344 29 -611 210 -718 488 -58 151 -62 180 -67 591 l-5 377 -114 0 -114 0 0
210 0 210 115 0 115 0 0 250 0 250 215 0 215 0 0 -250z m-4530 -419 l0 -209
-57 -7 c-181 -22 -294 -103 -355 -254 -23 -56 -23 -59 -26 -628 l-3 -573 -210
0 -210 0 3 598 c4 580 4 599 26 677 29 104 87 224 147 303 132 175 385 294
638 301 l47 1 0 -209z m1175 194 c358 -58 621 -283 736 -629 37 -113 59 -313
43 -395 l-6 -31 -731 0 -730 0 7 -43 c12 -72 70 -179 132 -240 70 -71 155
-113 265 -133 198 -36 397 20 509 143 l49 53 230 0 231 0 -21 -52 c-80 -205
-223 -365 -409 -462 -166 -86 -349 -124 -535 -112 -424 27 -746 284 -855 681
-27 99 -38 332 -21 445 56 363 312 656 655 750 149 41 302 50 451 25z m5817
-14 c277 -72 499 -246 621 -488 29 -57 77 -192 77 -217 0 -14 -26 -16 -217
-16 l-218 0 -34 65 c-63 122 -196 218 -346 250 -88 18 -142 19 -229 0 -300
-64 -483 -356 -408 -653 47 -186 167 -317 346 -380 97 -34 239 -36 341 -5 131
41 247 136 302 248 l27 55 218 0 c252 0 234 11 189 -116 -108 -311 -363 -535
-695 -611 -107 -25 -337 -22 -438 5 -356 96 -613 352 -700 698 -32 126 -31
362 0 479 79 291 295 538 562 643 64 25 143 46 250 66 58 11 277 -3 352 -23z
m1694 -12 c263 -36 461 -198 519 -424 8 -32 15 -74 15 -92 l0 -33 -165 0 -165
0 0 25 c0 39 -27 96 -63 133 -119 125 -401 135 -531 21 -55 -49 -70 -84 -64
-156 5 -53 8 -60 56 -104 63 -57 156 -93 362 -139 310 -69 458 -140 552 -265
103 -136 116 -376 31 -547 -65 -128 -203 -231 -367 -273 -222 -56 -508 -34
-699 54 -192 87 -316 264 -334 474 l-6 67 167 0 166 0 0 -32 c1 -75 81 -187
164 -230 193 -99 471 -78 582 44 41 46 54 76 54 128 0 52 -15 88 -53 128 -61
64 -149 98 -366 143 -352 73 -525 169 -603 335 -26 56 -32 82 -36 164 -8 168
36 289 148 400 150 150 380 215 636 179z m-3096 -919 l0 -920 -210 0 -210 0 0
920 0 920 210 0 210 0 0 -920z"/>
<path d="M3903 1510 c-162 -30 -294 -126 -359 -265 -13 -27 -24 -56 -24 -62 0
-10 107 -13 500 -13 275 0 500 3 500 6 0 3 -16 37 -37 76 -63 120 -158 200
-283 239 -75 23 -221 32 -297 19z"/>
</g>
</svg>
