<?xml version="1.0" standalone="no"?>
<!DOCTYPE svg PUBLIC "-//W3C//DTD SVG 20010904//EN"
 "http://www.w3.org/TR/2001/REC-SVG-20010904/DTD/svg10.dtd">
<svg version="1.0" xmlns="http://www.w3.org/2000/svg"
 width="623.000000pt" height="592.000000pt" viewBox="0 0 623.000000 592.000000"
 preserveAspectRatio="xMidYMid meet">
<metadata>
Created by potrace 1.16, written by Peter Selinger 2001-2019
</metadata>
<g transform="translate(0.000000,592.000000) scale(0.100000,-0.100000)"
fill="#000000" stroke="none">
<path d="M0 2960 l0 -2960 3115 0 3115 0 0 2960 0 2960 -3115 0 -3115 0 0
-2960z m3361 2080 c410 -42 829 -216 1138 -474 262 -219 476 -521 595 -839 35
-93 86 -268 86 -294 0 -10 -102 -13 -478 -13 l-478 0 -36 78 c-145 306 -424
525 -768 603 -122 28 -339 35 -465 16 -393 -61 -700 -290 -871 -651 -83 -177
-122 -370 -111 -565 10 -182 45 -318 123 -477 133 -268 364 -470 658 -573 158
-56 216 -61 667 -61 224 0 409 -3 411 -7 2 -5 2 -212 0 -462 l-3 -453 -452 5
c-473 5 -549 11 -750 58 -281 66 -591 219 -820 407 -269 219 -493 533 -622
873 -167 436 -177 962 -29 1417 44 135 160 375 241 497 386 583 1012 918 1724
924 75 1 183 -4 240 -9z"/>
</g>
</svg>
